<svg width="18" height="18" viewBox="0 0 18 18" fill="none" xmlns="http://www.w3.org/2000/svg">
<path d="M17.2649 6.53284H11.4655V0.734925C11.4654 0.619585 11.4196 0.508983 11.3381 0.427403C11.2565 0.345823 11.146 0.299932 11.0306 0.299805H6.96863C6.85327 0.299868 6.74266 0.345739 6.66111 0.427333C6.57956 0.508927 6.53375 0.619565 6.53375 0.734925L6.53351 6.53332L0.735352 6.53308C0.504712 6.53308 0.300472 6.73732 0.300232 6.9682V11.0302C0.300169 11.0874 0.311382 11.1439 0.33323 11.1968C0.355077 11.2496 0.387129 11.2975 0.427549 11.3379C0.46797 11.3783 0.515964 11.4104 0.568782 11.4322C0.621601 11.454 0.678205 11.4652 0.735352 11.4651H6.53375V17.2647C6.53382 17.3801 6.57968 17.4907 6.66127 17.5723C6.74285 17.6539 6.85349 17.6997 6.96887 17.6998H11.0304C11.0875 17.6998 11.1441 17.6885 11.1969 17.6667C11.2497 17.6448 11.2977 17.6128 11.3381 17.5724C11.3785 17.532 11.4105 17.484 11.4324 17.4312C11.4543 17.3784 11.4655 17.3218 11.4655 17.2647V11.4653L17.2646 11.4651C17.3218 11.4652 17.3784 11.454 17.4313 11.4322C17.4841 11.4103 17.5321 11.3783 17.5725 11.3379C17.6129 11.2974 17.645 11.2494 17.6668 11.1966C17.6887 11.1438 17.6998 11.0871 17.6998 11.03L17.7 6.96796C17.7 6.85256 17.6542 6.74189 17.5725 6.66029C17.4909 6.57869 17.3803 6.53284 17.2649 6.53284Z" fill="#8B57C2"/>
</svg>
