<svg width="275" height="183" viewBox="0 0 275 183" fill="none" xmlns="http://www.w3.org/2000/svg">
<path d="M0 120L54.23 0.149993H72.59L127.5 120H105.23L90.61 86.34L99.45 92.29H27.54L36.72 86.34L22.1 120H0ZM63.24 23.61L39.27 80.39L34.85 75.12H91.97L88.4 80.39L63.92 23.61H63.24ZM140.76 120V0.149993H162.69V120H140.76Z" fill="#8B57C2"/>
<path d="M17.864 175.44C14.6373 175.44 11.8653 174.795 9.548 173.504C7.26 172.184 5.5 170.336 4.268 167.96C3.036 165.555 2.42 162.724 2.42 159.468C2.42 156.212 3.036 153.396 4.268 151.02C5.5 148.644 7.26 146.811 9.548 145.52C11.8653 144.2 14.6373 143.54 17.864 143.54C20.0347 143.54 21.9853 143.848 23.716 144.464C25.476 145.08 26.9867 145.989 28.248 147.192L26.4 151.68C25.0213 150.565 23.6867 149.773 22.396 149.304C21.1347 148.805 19.6827 148.556 18.04 148.556C14.9013 148.556 12.496 149.509 10.824 151.416C9.18133 153.293 8.36 155.977 8.36 159.468C8.36 162.959 9.18133 165.657 10.824 167.564C12.496 169.471 14.9013 170.424 18.04 170.424C19.6827 170.424 21.1347 170.189 22.396 169.72C23.6867 169.221 25.0213 168.4 26.4 167.256L28.248 171.744C26.9867 172.917 25.476 173.827 23.716 174.472C21.9853 175.117 20.0347 175.44 17.864 175.44ZM33.5531 175V143.98H60.7011V175H55.0691V148.6H39.1411V175H33.5531ZM67.5414 175V143.98H88.4414V148.424H72.9974V157.004H87.4294V161.492H72.9974V170.512H88.4414V175H67.5414ZM120.417 182.26V175H93.7093V143.98H99.2973V170.336H115.225V143.98H120.857V170.336H125.389V182.26H120.417ZM129.846 175V143.98H135.522V175H129.846ZM138.918 175L152.954 143.98H157.706L171.918 175H166.154L162.37 166.288L164.658 167.828H146.046L148.422 166.288L144.638 175H138.918ZM155.286 150.052L149.082 164.748L147.938 163.384H162.722L161.798 164.748L155.462 150.052H155.286ZM175.306 175.748L172.534 171.568C173.766 170.893 174.851 170.101 175.79 169.192C176.729 168.283 177.506 167.153 178.122 165.804C178.738 164.425 179.193 162.739 179.486 160.744C179.809 158.72 179.97 156.285 179.97 153.44V143.98H202.498V175H196.866V148.6H185.206V154.848C185.206 157.811 184.986 160.421 184.546 162.68C184.106 164.939 183.461 166.919 182.61 168.62C181.759 170.292 180.718 171.715 179.486 172.888C178.283 174.032 176.89 174.985 175.306 175.748ZM209.338 175V143.98H215.014V175H209.338ZM236.274 175.44C233.047 175.44 230.275 174.795 227.958 173.504C225.67 172.184 223.91 170.336 222.678 167.96C221.446 165.555 220.83 162.724 220.83 159.468C220.83 156.212 221.446 153.396 222.678 151.02C223.91 148.644 225.67 146.811 227.958 145.52C230.275 144.2 233.047 143.54 236.274 143.54C238.445 143.54 240.395 143.848 242.126 144.464C243.886 145.08 245.397 145.989 246.658 147.192L244.81 151.68C243.431 150.565 242.097 149.773 240.806 149.304C239.545 148.805 238.093 148.556 236.45 148.556C233.311 148.556 230.906 149.509 229.234 151.416C227.591 153.293 226.77 155.977 226.77 159.468C226.77 162.959 227.591 165.657 229.234 167.564C230.906 169.471 233.311 170.424 236.45 170.424C238.093 170.424 239.545 170.189 240.806 169.72C242.097 169.221 243.431 168.4 244.81 167.256L246.658 171.744C245.397 172.917 243.886 173.827 242.126 174.472C240.395 175.117 238.445 175.44 236.274 175.44ZM258.838 175V148.644H248.586V143.98H274.766V148.644H264.514V175H258.838Z" fill="white"/>
</svg>
